<svg xmlns="http://www.w3.org/2000/svg" aria-hidden="true" overflow="hidden" style="position:absolute;width:0;height:0">
  <defs>
    <symbol id="antenna" viewBox="0 0 32 32">
      <path fill="var(--color1, #2e2f42)"
        d="m30.77 22.1-8.44-8.5.94-4.62a2 2 0 0 0 .75.15h.04a2.16 2.16 0 1 0-2.03-1.43v-.01l-4.97.6L8.97.17a.54.54 0 0 0-.75 0l-1.51 1.5a.54.54 0 0 0 0 .76l.81.82a14.9 14.9 0 0 0 2.52 17.66c.04.05.1.08.15.1-.04.18-.05.37-.05.55v6.19h-6.4a2.67 2.67 0 0 0-2.68 2.66v1.07c0 .3.24.53.54.53h24.53c.3 0 .53-.24.53-.54V30.4A2.67 2.67 0 0 0 24 27.73h-6.4V25a14.79 14.79 0 0 0 10.17-1.5l-.08.04.81.82a.53.53 0 0 0 .75.01l1.52-1.5c.2-.21.2-.55 0-.76zM23.28 6.23c.2-.19.46-.3.75-.3a1.07 1.07 0 0 1 0 2.13 1.07 1.07 0 0 1-.75-1.83zm-1.26 3.5-.6 2.95-1.17-1.18 1.77-1.76zm-.6-.9-1.92 1.92-1.49-1.5 3.4-.41zM24 28.8c.88 0 1.6.72 1.6 1.6v.54H2.14v-.54c0-.88.71-1.6 1.6-1.6H24zm-7.47-2.14v1.07H11.2v-1.07h5.34zM11.2 25.6v-4.05c0-1.3 1.2-2.35 2.67-2.35s2.67 1.05 2.67 2.35v4.05H11.2zm6.4-1.7v-2.35c0-1.89-1.67-3.42-3.73-3.42h-.06a3.8 3.8 0 0 0-3.21 1.77l-.01.02A13.82 13.82 0 0 1 8.35 3.95l-.04.08 18.6 18.71a13.64 13.64 0 0 1-9.4 1.15l.1.02zm11.3-.68L7.84 2.04l.75-.75 21.06 21.18-.76.75z" />
      <path fill="var(--color2, #4d5ae5)"
        d="M13.88 20.27h-.01a1.6 1.6 0 0 0 0 3.2 1.6 1.6 0 0 0 0-3.2zm.37 1.98a.54.54 0 1 1-.38-.91.53.53 0 0 1 .37.9z" />
    </symbol>
    <symbol id="astronaut" viewBox="0 0 32 32">
      <path fill="var(--color2, #4d5ae5)"
        d="M31.98 4.53a.54.54 0 0 0-.43-.37l-1.91-.28-.86-1.73c-.18-.36-.78-.36-.96 0l-.85 1.74-1.92.27a.53.53 0 0 0-.29.91l1.38 1.35-.33 1.9v.1a.54.54 0 0 0 .78.46l1.71-.9 1.71.9c.07.04.16.07.25.07a.54.54 0 0 0 .53-.63l-.33-1.9 1.38-1.35c.15-.14.2-.35.14-.55zM29.5 5.85a.54.54 0 0 0-.15.47l.19 1.11-1-.52a.53.53 0 0 0-.5 0l-1 .52.19-1.1a.54.54 0 0 0-.15-.48l-.81-.79 1.12-.16a.52.52 0 0 0 .4-.3l.5-1 .5 1c.08.16.23.27.4.3l1.12.16-.81.79zm-3.38 14.67h-1.06v1.07h1.07v-1.07zm0 2.14h-1.06v1.06h1.07v-1.06zm1.07-1.07h-1.06v1.06h1.06V21.6zm-2.13 0H24v1.06h1.06V21.6zm-2.67 4.8h-1.06v1.06h1.06V26.4zm0 2.13h-1.06v1.07h1.06v-1.07zm1.07-1.07H22.4v1.07h1.06v-1.06zm-2.13 0h-1.07v1.07h1.07v-1.06zM16 24.25h-1.06v1.07H16v-1.06zm0 2.14h-1.06v1.06H16V26.4zm1.07-1.07H16v1.07h1.06v-1.07zm-2.13 0h-1.07v1.07h1.07v-1.07zM5.87 6.12H4.8v1.07h1.07V6.12zm0 2.14H4.8v1.06h1.07V8.26zm1.06-1.07H5.86v1.06h1.07V7.2zm-2.13 0H3.74v1.06H4.8V7.2z" />
      <path fill="var(--color1, #2e2f42)"
        d="M24.71 14.16c-.28-.38-.7-.64-1.18-.7a1.77 1.77 0 0 0-1.34.35l-1.26.95-1.9 1.43-1.35-.54a6.95 6.95 0 0 0 4.12-6.32 6.95 6.95 0 0 0-13.93 0c0 1.38.42 2.67 1.12 3.75l-2.76-.02H6.2c-.05 0-.1.02-.15.04H6c-.01 0-.02 0-.02.02L2.75 14.7l-1.89.91a1.78 1.78 0 1 0 1.78 3.09l1.38-.73L6.3 16.8l1.35-.01-6.78 6.75a1.64 1.64 0 0 0 0 2.36 1.66 1.66 0 0 0 2.35 0l1.31-1.3 1.74-1.3.9.9-3.1 3.08a1.64 1.64 0 0 0 0 2.35 1.66 1.66 0 0 0 2.36 0l1.34-1.33 2.15-2.13 1-1v-.01l.02-.01 5.17-5.66 3.47.49h.07a.5.5 0 0 0 .2-.04l.04-.01.06-.03 3.21-2.14c.02 0 .02-.02.03-.02l.04-.03 1.28-1.2a1.78 1.78 0 0 0 .2-2.36zM2.14 17.77a.7.7 0 0 1-.56.05.72.72 0 0 1-.21-1.26l1.31-.63.32.92.13.4-.99.52zm3.5-1.83-1.55.8-.26-.74-.18-.54 2.02-1-.03 1.48zm15.1-6.62a5.8 5.8 0 0 1-.6 2.56l-4.18-1.9a1.86 1.86 0 0 0-.78-1.38h-.01l1.46-4.86a5.9 5.9 0 0 1 4.1 5.58zm-11.79 0a5.89 5.89 0 0 1 6.67-5.81h-.03l-1.44 4.75h-.05c-1.03 0-1.87.83-1.88 1.86a1.87 1.87 0 0 0 3.49.93l3.87 1.74A5.89 5.89 0 0 1 8.94 9.32zm5.95.8a.8.8 0 1 1-1.61 0c0-.44.37-.8.81-.8s.8.36.8.8zM2.47 25.15a.6.6 0 0 1-.85 0 .6.6 0 0 1 0-.84l.96-.96.85.85-.96.95zm3.21 3.74a.6.6 0 0 1-1.03-.43.6.6 0 0 1 .18-.42l.96-.96.85.85-.95.95zm3.48-3.48L7.4 27.18l-.85-.85 1.76-1.75a.42.42 0 0 0 .09-.14l.03-.04.03-.12v-.07c0-.04 0-.07-.02-.1l-.01-.1a.52.52 0 0 0-.1-.15s0-.02-.02-.03l-1.6-1.6-.07-.04a.53.53 0 0 0-.08-.06.47.47 0 0 0-.1-.03.55.55 0 0 0-.1-.02h-.1l-.1.02a.5.5 0 0 0-.1.05c-.01.01-.04.01-.05.03L4.23 23.5l-.9-.9 2.4-2.38 4.36 4.28-.93.92zm6.82-7.01h-.08c-.1 0-.2.03-.27.08l-.08.06-.04.03-4.7 5.14-4.33-4.26 2.84-2.81c.1-.1.15-.23.15-.38a.53.53 0 0 0-.53-.53l-2.22.01.02-1.6 3.1.02a6.93 6.93 0 0 0 6.31 1.97l-.04.01.13.08 2.4.96.16.76.18.88-3-.42zm4.04.18-.32-1.56 1.45-1.08.38.5.57.75-2.08 1.38zm3.75-2.83-.83.78-.94-1.24.83-.63a.72.72 0 0 1 1.18.56c0 .2-.1.4-.23.53z" />
      <path fill="var(--color1, #2e2f42)"
        d="m13.6 18.55-2.14-2.14a.53.53 0 0 0-.75 0l-2.15 2.14a.54.54 0 0 0 0 .75l2.15 2.14a.53.53 0 0 0 .75 0l2.14-2.14a.54.54 0 0 0 0-.75zm-2.51 1.75-1.4-1.38 1.4-1.38 1.38 1.38-1.39 1.38zm6.07-15.23L16.9 6.1c.08.03 1.74.46 1.74 2.16h1.07c0-2.02-1.67-2.97-2.55-3.19zm2.55 4.25h-1.06v1.07h1.07V9.32z" />
    </symbol>
    <symbol id="clock" viewBox="0 0 32 32">
      <path fill="var(--color1, #2e2f42)"
        d="M31.3 15.3a15.3 15.3 0 1 0-20.07 14.56l.1.03a.67.67 0 0 0 .54-.07.66.66 0 0 0 .28-.36l3.87-12.25a1.91 1.91 0 1 0-.86-3.62h.02l-5.1-5.12a.64.64 0 0 0-.9.9l5.1 5.11a1.87 1.87 0 0 0 .53 2.3v.01l-3.68 11.68a14.04 14.04 0 1 1 10.66-.39l-.1.04-.4-1.88a.64.64 0 0 0-1.05-.34l-3.83 3.42a.63.63 0 0 0 .23 1.09l4.9 1.56a.64.64 0 0 0 .82-.74l-.39-1.84a15.28 15.28 0 0 0 9.33-14.05v-.04zm-15.31-.64h.06a.64.64 0 1 1-.06 1.28.64.64 0 0 1 0-1.27zm2.1 14.87 2.19-1.95.6 2.84-2.78-.89z" />
      <path fill="var(--color2, #4d5ae5)"
        d="M15.35 3.19v1.27a.64.64 0 0 0 1.28 0V3.19a.64.64 0 0 0-1.27 0zM3.88 14.66a.64.64 0 0 0 0 1.28h1.27a.64.64 0 1 0 0-1.28H3.87zm24.23 1.28a.64.64 0 1 0 0-1.28h-1.27a.64.64 0 0 0 0 1.28h1.27z" />
    </symbol>
    <symbol id="diagram" viewBox="0 0 32 32">
      <path fill="var(--color2, #4d5ae5)"
        d="M14.93 14.96h1.06v4.8h-1.06v-4.8zm4.26 2.14h1.06v2.66H19.2V17.1zm-8.53 1.6h1.06v1.06h-1.06V18.7zm-3.2-.54h1.07v1.6H7.47v-1.6z" />
      <path fill="var(--color1, #2e2f42)"
        d="M1.6 28.29h25.59c.88 0 1.6-.72 1.6-1.6v-2.13c0-.88-.72-1.6-1.6-1.6h-.53V9.66l3.02-2.86a1.61 1.61 0 1 0-.75-.76L26.66 8.2V6.97c0-.88-.72-1.6-1.6-1.6H3.73c-.88 0-1.6.72-1.6 1.6v15.99H1.6c-.88 0-1.6.72-1.6 1.6v2.13c0 .88.72 1.6 1.6 1.6zM30.39 4.84a.54.54 0 1 1 0 1.06.54.54 0 0 1 0-1.07zM3.2 6.97c0-.3.23-.54.53-.54h21.32c.3 0 .53.24.53.54V9.2l-1.06 1.01V8.04c0-.3-.24-.54-.54-.54H4.8a.53.53 0 0 0-.53.54v13.32c0 .3.24.54.53.54h19.19c.3 0 .54-.24.54-.54v-9.67l1.06-1v12.28H3.2v-16zM8 13.9h-.01a1.6 1.6 0 1 0 1.11 2.75l1.86.93c.21.1.47.06.63-.12l3.94-4.43 3.88 2.9c.2.15.5.14.68-.04l3.37-3.2v8.14H5.33V8.57h18.13v2.66l-3.77 3.57-3.9-2.92a.53.53 0 0 0-.73.06l-4 4.5-1.48-.75.02-.2c0-.87-.72-1.6-1.6-1.6zm.53 1.6v.05a.54.54 0 1 1-1.06-.05.54.54 0 0 1 1.06 0zm3.2 8.52h5.33v.54c0 .3-.24.54-.53.54h-4.27a.54.54 0 0 1-.53-.54v-.54zm-10.67.54c0-.3.24-.54.54-.54h9.06v.54c0 .88.71 1.6 1.6 1.6h4.26c.88 0 1.6-.72 1.6-1.6v-.54h9.06c.3 0 .54.24.54.54v2.13c0 .3-.24.53-.54.53H1.6a.54.54 0 0 1-.53-.53v-2.13z" />
    </symbol>
    <symbol id="facebook" viewBox="0 0 32 32">
      <path
        d="M21.32 5.32h2.94V.2C23.74.16 22 0 20 0c-4.2 0-7.1 2.64-7.1 7.52V12H8.24v5.68h4.66V32h5.7V17.68h4.46l.7-5.68H18.6V8.08c0-1.64.44-2.76 2.72-2.76z" />
    </symbol>
    <symbol id="instagram" viewBox="0 0 32 32">
      <path
        d="M31.96 9.4c-.03-1.4-.3-2.73-.77-3.96l.03.08A8.09 8.09 0 0 0 26.54.84 11.36 11.36 0 0 0 22.67.1h-.01a104.85 104.85 0 0 0-6.69-.1h.09c-4.34 0-4.88 0-6.6.1-1.4.01-2.72.28-3.93.77L5.6.84A8.09 8.09 0 0 0 .92 5.52c-.4 1-.66 2.2-.74 3.88a104.77 104.77 0 0 0-.12 6.67V16c0 4.34 0 4.9.08 6.6s.36 2.86.76 3.88a7.96 7.96 0 0 0 4.63 4.66l.05.02c1 .4 2.18.68 3.88.74 1.7.08 2.24.1 6.6.1 4.34 0 4.88 0 6.6-.1 1.4-.03 2.73-.3 3.96-.77l-.08.03a8.25 8.25 0 0 0 4.66-4.63l.02-.05c.4-1.02.66-2.2.74-3.88.08-1.7.08-2.26.08-6.6s0-4.88-.08-6.6zm-2.88 13.08a8.52 8.52 0 0 1-.54 2.96 5.3 5.3 0 0 1-3.04 3.04c-.56.22-1.4.48-2.98.56-1.68.06-2.2.08-6.46.08s-4.78 0-6.46-.08a8.77 8.77 0 0 1-3.02-.58l.06.02a4.94 4.94 0 0 1-1.84-1.2 4.99 4.99 0 0 1-1.19-1.8l-.01-.04a8.65 8.65 0 0 1-.54-2.96 108.54 108.54 0 0 1-.1-6.54v.08c0-4.28 0-4.8.1-6.46.06-1.58.32-2.4.54-2.98a4.9 4.9 0 0 1 1.2-1.84 5.15 5.15 0 0 1 1.84-1.2c.56-.2 1.4-.48 2.96-.54 1.7-.08 2.2-.1 6.48-.1 4.26 0 4.78.02 6.46.1a8.4 8.4 0 0 1 2.96.56c.7.24 1.34.66 1.84 1.2.54.5.94 1.12 1.2 1.82.2.56.48 1.4.54 2.98.08 1.68.1 2.2.1 6.46s0 4.76-.1 6.46z" />
      <path
        d="m16.06 7.8-.4-.01a8.22 8.22 0 1 0 .42 16.43h-.02a8.22 8.22 0 1 0 0-16.44zm0 13.54a5.34 5.34 0 0 1 0-10.68 5.34 5.34 0 0 1 0 10.68zM26.52 7.46a1.92 1.92 0 0 1-3.84 0 1.92 1.92 0 0 1 3.84 0z" />
    </symbol>
    <symbol id="linkedin" viewBox="0 0 32 32">
      <path
        d="M32 32V20.26c0-5.74-1.24-10.16-7.94-10.16-3.24 0-5.4 1.76-6.28 3.44h-.1v-2.9h-6.36V32h6.62V21.4c0-2.8.54-5.48 4-5.48 3.4 0 3.44 3.18 3.44 5.66V32h6.6zM.52 10.64h6.64V32H.52V10.64zM3.84 0C1.72 0 0 1.72 0 3.84s1.72 3.88 3.84 3.88 3.84-1.76 3.84-3.88S5.96 0 3.84 0z" />
    </symbol>
    <symbol id="twitter" viewBox="0 0 32 32">
      <path
        d="M32 6.08c-1.2.52-2.46.86-3.78 1.04 1.36-.8 2.4-2.1 2.88-3.64-1.26.76-2.66 1.3-4.16 1.6a6.58 6.58 0 0 0-11.2 6.03v-.05A18.55 18.55 0 0 1 2.27 4.23l-.03-.03a6.6 6.6 0 0 0 2 8.74l.02.02a6.45 6.45 0 0 1-3-.82l.04.02v.06a6.6 6.6 0 0 0 5.22 6.45l.04.01a6.38 6.38 0 0 1-3 .1h.04a6.64 6.64 0 0 0 6.11 4.56h.01a13.12 13.12 0 0 1-9.78 2.71H0A18.28 18.28 0 0 0 10 29h.06c12.08 0 18.68-10 18.68-18.66l-.02-.86c1.3-.94 2.38-2.06 3.25-3.35l.03-.05z" />
    </symbol>
    <symbol id="logo_brand" viewBox="0 0 59 32">
      <path
        d="M15.31 25.36a.8.8 0 0 1 .21.55c0 .13-.02.26-.07.38s-.15.23-.26.32c-.27.18-.6.27-.95.25h-1.67v-3.5h1.64c.32-.02.64.06.9.23a.75.75 0 0 1 .32.66.71.71 0 0 1-.19.53.91.91 0 0 1-.5.28c.23.03.43.14.57.3zm-1.96-.53h.7c.16 0 .32-.03.44-.12.06-.04.1-.1.12-.15s.04-.13.03-.2a.4.4 0 0 0-.14-.33.73.73 0 0 0-.46-.12h-.69v.92zm1.21 1.34c.06-.04.1-.1.13-.16s.04-.13.04-.2c0-.06-.01-.13-.04-.2s-.08-.11-.13-.16a.79.79 0 0 0-.48-.12h-.73v.96h.74a.8.8 0 0 0 .47-.12zm4.1.69-.92-1.37h-.34v1.37h-.78v-3.5h1.48c.38-.03.75.08 1.04.3.2.19.33.44.35.7s-.07.53-.24.75c-.19.18-.44.31-.71.35l.97 1.4h-.85zm-1.26-1.84h.64c.45 0 .67-.18.67-.54 0-.07 0-.14-.04-.2s-.07-.14-.12-.19a.75.75 0 0 0-.5-.14h-.66l.01 1.07zm5.54 1.14h-1.56l-.28.7h-.82l1.43-3.46h.9l1.42 3.46h-.82l-.27-.7zm-.21-.53-.57-1.48-.57 1.48h1.14zm5.57 1.23h-.78l-1.74-2.38v2.38H25v-3.5h.78l1.74 2.4v-2.4h.78v3.5zm4.44-.84c-.16.27-.4.48-.7.62a2.5 2.5 0 0 1-1.1.22h-1.38v-3.5h1.38c.38-.01.75.06 1.1.21.3.14.54.35.7.62a1.87 1.87 0 0 1 0 1.83zm-.9-.08a1.18 1.18 0 0 0 .01-1.67 1.45 1.45 0 0 0-.98-.3h-.54v2.27h.54c.36.02.7-.09.98-.3zM23.43 3.87s10.03 3.4 9.82 8.35v8.35s-10.03-3.42-9.82-8.35V3.87zM42.2 18.61a14.67 14.67 0 0 1 6.37-2.11v-2.62a12.88 12.88 0 0 0-6.38 4.73z" />
      <path
        d="M41.05 19.4a13.25 13.25 0 0 1 7.52-6.07V5.8s-14.3 4.86-14 11.9v11.88s.65-.22 1.65-.62c0-.38 0-.77.04-1.15a12 12 0 0 1 4.8-8.41z" />
      <path
        d="M39.7 23.82c.07-.83.24-1.64.5-2.44a10.91 10.91 0 0 0-3.03 7.18 45.4 45.4 0 0 0 2.75-1.3 11.1 11.1 0 0 1-.22-3.44zm.56.04a10.6 10.6 0 0 0 .18 3.12c3.9-2.1 8.3-5.36 8.13-9.29v-.34c-2.8.28-5.4 1.38-7.43 3.13a10.75 10.75 0 0 0-.88 3.38z" />
    </symbol>
    <symbol id="logo_company" viewBox="0 0 59 32">
      <path
        d="M21.03 28.13h.03l.02.02.13.12c-.1.1-.22.17-.36.22a1.4 1.4 0 0 1-.5.08c-.16 0-.32-.02-.47-.07a1.04 1.04 0 0 1-.36-.22.94.94 0 0 1-.23-.33 1.08 1.08 0 0 1 0-.84 1 1 0 0 1 .63-.54 1.54 1.54 0 0 1 .94-.01c.13.04.24.11.34.19l-.1.13-.03.02a.07.07 0 0 1-.05 0 .1.1 0 0 1-.04 0l-.06-.04-.08-.04a.9.9 0 0 0-.25-.08 1.18 1.18 0 0 0-.54.04.73.73 0 0 0-.45.41.86.86 0 0 0-.06.34c0 .12.02.23.06.34a.73.73 0 0 0 .44.4c.1.04.21.06.32.06h.2a.78.78 0 0 0 .41-.18.1.1 0 0 1 .06-.03zm3.65-.6c0 .14-.03.29-.09.42a.95.95 0 0 1-.61.54c-.3.1-.65.1-.96 0a1.13 1.13 0 0 1-.37-.21.96.96 0 0 1-.24-.33 1.07 1.07 0 0 1 0-.84.98.98 0 0 1 .61-.54c.31-.1.65-.1.96 0 .14.05.27.12.37.22a.96.96 0 0 1 .33.74zm-.33 0a.9.9 0 0 0-.06-.34.69.69 0 0 0-.44-.4 1.12 1.12 0 0 0-.7 0 .68.68 0 0 0-.44.41.98.98 0 0 0 0 .67.7.7 0 0 0 .44.4c.23.08.48.08.7 0 .1-.03.2-.08.27-.15a.7.7 0 0 0 .17-.25.97.97 0 0 0 .06-.34zm2.81.36.04.07.03-.07a.98.98 0 0 1 .04-.08l.81-1.25c.02-.02.03-.04.05-.04a.2.2 0 0 1 .06 0h.24v2.03h-.28v-1.56a.4.4 0 0 1 0-.07l-.81 1.27-.05.04a.16.16 0 0 1-.07.02h-.04c-.03 0-.05 0-.07-.02l-.05-.04-.83-1.28v1.64h-.28V26.5h.24a.2.2 0 0 1 .07.01c.02 0 .03.02.04.04l.82 1.25a.4.4 0 0 1 .04.08zm3.04-.11v.77h-.32V26.5h.7c.14 0 .27.02.4.05.1.02.2.07.28.12.07.06.12.13.15.2a.62.62 0 0 1 0 .52.56.56 0 0 1-.17.2.82.82 0 0 1-.28.14 1.2 1.2 0 0 1-.38.05h-.38zm0-.21h.38a.9.9 0 0 0 .24-.04.55.55 0 0 0 .18-.08.38.38 0 0 0 .14-.3c0-.07 0-.12-.03-.18s-.06-.1-.1-.13a.69.69 0 0 0-.43-.11h-.38v.83zm4.24.98h-.25a.12.12 0 0 1-.11-.07l-.22-.49H32.8l-.23.5a.11.11 0 0 1-.1.06h-.26l.95-2.04h.33l.96 2.04zm-1.56-.76h.88l-.37-.83a1.33 1.33 0 0 1-.07-.19l-.04.1a.95.95 0 0 1-.03.1l-.37.82zm2.92-1.27.05.04 1.38 1.53v-1.58h.28v2.04h-.16l-.06-.01a.16.16 0 0 1-.05-.04l-1.38-1.54a.4.4 0 0 1 0 .07v1.52h-.29V26.5h.17l.06.01zm4.03 1.22v.8h-.31v-.8l-.87-1.23h.28c.02 0 .05 0 .07.02l.04.05.54.79a1.58 1.58 0 0 1 .1.18l.04-.09a.62.62 0 0 1 .06-.1l.53-.79a.2.2 0 0 1 .04-.04.1.1 0 0 1 .07-.02h.29l-.88 1.23zM27 23.1l.42.03c2.13-.81 3.93-2.14 5.18-3.82s1.89-3.65 1.84-5.64l-2.35-2c.48 2.12.26 4.31-.64 6.33S29 21.78 27 23.1z" />
      <path
        d="m26.17 23 .06.01c2.15-1.3 3.78-3.14 4.7-5.25s1.06-4.4.43-6.6l-3.34-2.85c1.35 2.35 1.89 4.98 1.56 7.58s-1.5 5.06-3.41 7.11zm11.33-6.98a10.26 10.26 0 0 1-3.93 5.63c-.58.43-1.2.82-1.87 1.15 1.62-.4 3.1-1.13 4.34-2.1s2.2-2.18 2.82-3.52l-1.36-1.16z" />
      <path
        d="m36.97 15.7-1.93-1.65c-.04 1.88-.66 3.72-1.81 5.32s-2.78 2.92-4.72 3.8c.44 0 .87-.02 1.3-.07 1.82-.63 3.42-1.64 4.67-2.93s2.1-2.83 2.49-4.47zM26.45 7.11l-2.3-1.97c-2.06.68-3.83 1.88-5.08 3.43s-1.92 3.4-1.93 5.27c.01 2.09.83 4.1 2.33 5.75s3.6 2.8 5.97 3.3c2.11-2.2 3.35-4.9 3.53-7.75s-.7-5.65-2.52-8.03zm15.84 8.29c-.01-2.47-1.16-4.84-3.2-6.59s-4.82-2.73-7.72-2.74c-1.33 0-2.66.21-3.9.63l14.09 12.04c.48-1.07.73-2.2.73-3.34z" />
    </symbol>
    <symbol id="logo_company_tag_line" viewBox="0 0 59 32">
      <path
        d="M30.59 15.68a1.69 1.69 0 0 1-.35-1.14V12.9c0-.5.12-.89.35-1.15s.62-.4 1.18-.4c.52 0 .9.12 1.12.34.24.29.36.64.33 1v.38h-.94v-.4c0-.12 0-.25-.03-.38a.37.37 0 0 0-.13-.23.54.54 0 0 0-.34-.09.58.58 0 0 0-.36.1.44.44 0 0 0-.16.25l-.03.4v2.01a.9.9 0 0 0 .12.56c.05.06.11.11.19.14s.16.04.24.03a.5.5 0 0 0 .33-.09.4.4 0 0 0 .14-.24l.03-.4v-.4h.94v.36c.03.37-.09.73-.32 1.04-.22.24-.59.37-1.13.37s-.95-.13-1.18-.4zm3.91.02c-.24-.26-.36-.63-.36-1.13v-1.73c0-.5.12-.87.36-1.12s.63-.37 1.2-.37c.54 0 .94.12 1.18.37.23.25.35.63.35 1.12v1.73c0 .5-.12.87-.36 1.13s-.63.38-1.18.38-.95-.13-1.19-.38zm1.63-.42a.97.97 0 0 0 .11-.51v-2.13a.94.94 0 0 0-.1-.5c-.06-.06-.12-.11-.2-.14s-.16-.04-.25-.03c-.08 0-.17 0-.25.03s-.14.08-.19.14a.92.92 0 0 0-.11.5v2.14a.9.9 0 0 0 .11.51c.06.06.12.1.2.13a.67.67 0 0 0 .48 0 .6.6 0 0 0 .2-.13zm2.23-3.88h1.02l.76 3.2.77-3.2h.99l.1 4.62h-.73l-.08-3.21-.75 3.21h-.58l-.78-3.22-.07 3.22h-.74l.1-4.62zm4.77 0h1.58c.9 0 1.36.44 1.36 1.31 0 .84-.48 1.26-1.43 1.26h-.54v2.05h-.97V11.4zm1.35 1.97a.76.76 0 0 0 .53-.14.74.74 0 0 0 .14-.52c0-.15 0-.29-.04-.42-.02-.05-.04-.1-.07-.13l-.13-.1a1.01 1.01 0 0 0-.43-.07h-.38v1.38h.38zm2.99-1.97h1.05l1.07 4.62h-.9l-.22-1.06h-.93l-.22 1.06h-.92l1.07-4.62zm.9 3.02L48 12.48l-.36 1.94h.73zm2.09-3.02h.68l1.3 2.63V11.4h.8v4.62h-.64l-1.31-2.75v2.75h-.84V11.4zm4.68 2.86-1.08-2.86h.9l.67 1.84.62-1.84h.9l-1.08 2.86v1.76h-.93v-1.76zm-23.05 3.78v.24h-.8v1.88h-.33v-1.88h-.8v-.24h1.93zm2.49 2.12h-.26c-.02 0-.05 0-.07-.02a.11.11 0 0 1-.04-.05l-.23-.5h-1.1l-.23.5c-.01.03-.02.05-.04.06a.12.12 0 0 1-.07.02h-.26l.97-2.12h.34l.99 2.11zm-1.61-.79h.92l-.4-.86a1.45 1.45 0 0 1-.07-.2l-.03.12-.04.08-.38.86zm3.29.58h.18a1.15 1.15 0 0 0 .3-.06l.12-.05v-.48h-.4l-.03-.02-.01-.01v-.19h.75v.82a1.5 1.5 0 0 1-.66.21l-.28.02a1.5 1.5 0 0 1-.49-.08 1.18 1.18 0 0 1-.39-.23c-.1-.1-.2-.2-.25-.33a1.12 1.12 0 0 1 0-.88.97.97 0 0 1 .25-.34c.11-.1.24-.17.39-.22a1.63 1.63 0 0 1 .79-.06 1.3 1.3 0 0 1 .6.25l-.1.13-.03.03h-.1a1.13 1.13 0 0 1-.1-.06.95.95 0 0 0-.3-.1 1.45 1.45 0 0 0-.63.04c-.1.04-.2.1-.29.17a.73.73 0 0 0-.18.26.99.99 0 0 0 0 .7.84.84 0 0 0 .86.48zm3.1-.03h1.06v.24h-1.39v-2.12h.33v1.88zm2.16.24h-.33v-2.12h.33v2.12zm1.24-2.11.05.04 1.42 1.6v-1.65h.3v2.12h-.17l-.08-.01a.21.21 0 0 1-.05-.04l-1.42-1.6v1.65h-.28v-2.12h.18l.05.01zm4.21-.01v.24H45.8v.7h.96v.22h-.96v.72h1.18v.24h-1.52v-2.12h1.52zM12.11 4.95l14.77 3.62v12.68l-14.77-3.62V4.95zm-.95-1.08v14.38l16.67 4.08V7.95L11.16 3.87z" />
      <path d="M20.1 29.01 3.43 24.92V10.54l16.67 4.09V29z" />
      <path
        d="m11.44 4.79 14.58 3.57-6.2 5.35-14.58-3.58 6.2-5.35zm-.28-.92-7.73 6.67 16.67 4.09 7.73-6.68-16.67-4.08zm9.87 24.33 6.8-5.86-6.8-1.67v7.53z" />
    </symbol>
    <symbol id="logo_company_taglinehere" viewBox="0 0 59 32">
      <path
        d="M28.64 3.4h-.08c-.12-.02-.24-.02-.36-.02h-.26a14.46 14.46 0 0 0-.74.02c-2.08.11-4.12.63-6.01 1.53l-.25.12V17.7l.58-.2a19.62 19.62 0 0 1 6.23-1.1v1.67l-.6.02h-.05a18.54 18.54 0 0 0-7.8 2.2V4.06a16.98 16.98 0 0 1 4.44-1.8c1.37-.36 2.78-.54 4.2-.55h.24a12 12 0 0 1 2.93.37v1.64c-.66-.15-1.34-.26-2.02-.3h-.04l-.42-.03zm2.88 1.66a17.95 17.95 0 0 0 5.53-.52 18.3 18.3 0 0 0 4.23-1.65v15.93a17.2 17.2 0 0 1-8.65 2.35 12.6 12.6 0 0 1-3.17-.37V4.76a13.3 13.3 0 0 0 2.06.3zm8.1.13-.57.2a19.61 19.61 0 0 1-7.47 1.06l-.46-.03v13.01l.4.04a15.34 15.34 0 0 0 4.91-.44c1.01-.26 2-.62 2.95-1.07l.25-.12V5.2zm-19.2 20.65a.86.86 0 0 0-.64-.26.95.95 0 0 0-.66.26.96.96 0 0 0-.25.65v2.16a.87.87 0 0 0 .3.74c.08.07.18.13.3.15.1.03.2.05.32.05s.24-.03.35-.08a.9.9 0 0 0 .54-.84v-.24h-.56v.2a.5.5 0 0 1-.04.19.35.35 0 0 1-.08.12.33.33 0 0 1-.12.06.37.37 0 0 1-.12.02c-.05 0-.1 0-.14-.02s-.1-.05-.12-.1a.51.51 0 0 1-.08-.28v-2.03c0-.1.02-.22.07-.32a.28.28 0 0 1 .28-.13c.05 0 .1 0 .14.03s.08.05.11.1c.07.08.1.18.1.28v.19h.56v-.22a1.02 1.02 0 0 0-.26-.68zm3.37-.03a1 1 0 0 0-.98-.18.91.91 0 0 0-.52.48 1 1 0 0 0-.09.42v2.08c0 .15.03.3.09.43a.87.87 0 0 0 .52.47.98.98 0 0 0 .98-.18.9.9 0 0 0 .3-.72v-2.07a1 1 0 0 0-.09-.42.93.93 0 0 0-.21-.3zm-.27 2.8a.38.38 0 0 1-.1.3.41.41 0 0 1-.54 0c-.04-.03-.07-.08-.1-.13s-.02-.11-.01-.17v-2.07a.38.38 0 0 1 .1-.3.41.41 0 0 1 .54 0c.04.03.07.08.1.13s.02.11.01.16v2.08zm4.69.93v-3.93h-.55l-.71 2.08h-.01l-.72-2.08h-.54v3.93h.56v-2.4h.01l.55 1.7h.28l.56-1.7v2.4h.57zm3.19-3.66a.79.79 0 0 0-.31-.21 1.25 1.25 0 0 0-.41-.06h-.84v3.93h.56v-1.53h.3c.17 0 .34-.03.5-.11a.94.94 0 0 0 .44-.64 2.8 2.8 0 0 0-.03-1.02.83.83 0 0 0-.2-.36zm-.28 1.2c0 .07-.02.14-.06.2a.31.31 0 0 1-.14.14.57.57 0 0 1-.27.05h-.25v-1.33h.29c.08 0 .17 0 .25.04.06.04.1.09.13.15.03.07.05.14.05.22v.53zm2.94-1.48h-.46l-.87 3.94h.57l.16-.84h.77l.16.84h.56l-.89-3.93zm-.52 2.56.28-1.43h.01l.28 1.43h-.57zm4.15-.18h-.01l-.85-2.37h-.54v3.93h.56v-2.36h.01l.86 2.36h.53v-3.93h-.56v2.37zm3.42-2.38-.45 1.57h-.01l-.45-1.56h-.6l.77 2.27v1.66h.57v-1.66l.77-2.27h-.6zm-22.25 5.05h.27v.76h.18v-.76h.27v-.15h-.72v.15zm2.27-.15-.35.91h.2l.07-.2h.36l.08.2h.2l-.37-.91h-.19zm-.03.55.12-.34.13.34h-.25zm2.28.03h.2v.11a.36.36 0 0 1-.21.08.23.23 0 0 1-.2-.09.39.39 0 0 1-.06-.23c0-.2.09-.3.26-.3a.2.2 0 0 1 .2.14l.19-.04c-.04-.18-.17-.27-.39-.27a.46.46 0 0 0-.32.12c-.04.04-.08.1-.1.16s-.03.13-.03.2c0 .12.04.24.12.33a.45.45 0 0 0 .35.14c.14 0 .28-.05.38-.15v-.36h-.4v.16zm2.29-.58h-.18v.91h.64v-.15h-.46v-.76zm1.94 0h-.18v.91h.18v-.91zm1.89.6-.37-.6h-.18v.91h.18v-.6l.36.6h.19v-.91h-.17v.6zm1.72-.09h.46v-.15h-.46v-.2h.5v-.16h-.68v.91h.69v-.15h-.5V31zm4.16-.15h-.36v-.36h-.19v.91h.19v-.4h.36v.4h.18v-.91h-.18v.36zm1.72.15h.46v-.15h-.46v-.2h.5v-.16h-.68v.91h.7v-.15h-.52V31zm2.34 0c.16-.03.24-.1.24-.25a.21.21 0 0 0-.09-.2.52.52 0 0 0-.27-.06h-.38v.91h.18v-.38h.04c.04 0 .08 0 .11.02a.2.2 0 0 1 .07.07l.2.29h.22l-.11-.18a.64.64 0 0 0-.2-.22zm-.18-.13h-.14v-.23h.15c.06 0 .12 0 .18.03.02 0 .03.02.03.04l.01.05-.01.05-.04.04a.54.54 0 0 1-.18.02zm1.94.13h.46v-.15h-.45v-.2h.49v-.16h-.68v.91h.7v-.15h-.51V31z" />
    </symbol>
    <symbol id="logo_foster_peters" viewBox="0 0 59 32">
      <path
        d="M13.76 12.3c-1.37 0-2.47 1-2.47 2.22 0 1.23 1.1 2.23 2.47 2.23 1.36 0 2.47-1 2.47-2.23s-1.1-2.22-2.47-2.22zm18.22-.71c0-1.71-.76-3.35-2.1-4.56s-3.15-1.88-5.04-1.89c-1.9 0-3.71.69-5.05 1.9s-2.1 2.84-2.1 4.54V21s14.29-1.44 14.29-9.41zM6.29 24.09c0 1.19.52 2.32 1.46 3.16s2.19 1.32 3.5 1.32c1.32 0 2.59-.48 3.52-1.32s1.45-1.97 1.46-3.16v-6.55s-9.94 1-9.94 6.55zm4.97 1.17c-.26 0-.51-.07-.73-.2s-.38-.3-.48-.52-.12-.45-.07-.68c.05-.23.17-.44.36-.6a1.42 1.42 0 0 1 1.42-.26c.23.1.44.24.58.44a1.1 1.1 0 0 1-.16 1.48 1.35 1.35 0 0 1-.92.35zm9.09-2.11v2.44h-.5v-2.44h.5zm.97 1.04v.4h-1.1v-.4h1.1zm.12-1.04v.4H20.2v-.4h1.23zm2.29 1.16v.12c0 .18-.03.35-.07.5s-.13.27-.22.37c-.09.1-.2.19-.33.24a.93.93 0 0 1-.42.08.95.95 0 0 1-.75-.32c-.09-.1-.16-.22-.21-.37a1.55 1.55 0 0 1-.08-.5v-.12c0-.18.03-.35.08-.5a.97.97 0 0 1 .96-.69c.15 0 .3.02.42.08.13.05.24.13.33.24.1.1.16.23.21.37.05.15.08.32.08.5zm-.5.12v-.12c0-.13-.02-.24-.04-.34s-.06-.18-.1-.25-.1-.12-.17-.15c-.07-.04-.15-.05-.23-.05s-.16.01-.23.05a.46.46 0 0 0-.16.15c-.05.07-.08.15-.1.25s-.04.21-.04.34v.12c0 .13.01.24.04.34.02.1.05.18.1.25s.1.12.17.15a.54.54 0 0 0 .45 0 .39.39 0 0 0 .16-.15.76.76 0 0 0 .1-.25c.03-.1.04-.21.04-.34zm2.13.52c0-.04 0-.08-.02-.12a.22.22 0 0 0-.07-.1l-.15-.08a2.35 2.35 0 0 0-.24-.1 3.17 3.17 0 0 1-.31-.11c-.1-.05-.19-.1-.27-.16a.58.58 0 0 1-.24-.48c0-.1.03-.2.07-.28a.82.82 0 0 1 .47-.35 1.3 1.3 0 0 1 .84.05.7.7 0 0 1 .3.26c.08.11.12.24.12.39h-.5a.38.38 0 0 0-.04-.19.3.3 0 0 0-.14-.13.48.48 0 0 0-.22-.05.52.52 0 0 0-.22.04.3.3 0 0 0-.13.1.26.26 0 0 0-.05.16c0 .04.01.08.03.1l.1.1.15.08.21.08c.13.04.25.08.35.14a.73.73 0 0 1 .4.38c.04.08.06.17.06.27s-.02.2-.06.28-.1.16-.18.22c-.08.05-.17.1-.28.13a1.37 1.37 0 0 1-1.04-.15.68.68 0 0 1-.31-.61h.5c0 .08.01.14.04.2s.05.1.1.12c.04.04.09.06.15.07a.6.6 0 0 0 .41-.01c.06-.03.1-.06.13-.1.02-.05.04-.1.04-.15zm1.93-1.8v2.44h-.5v-2.44h.5zm.75 0v.4h-1.98v-.4h1.98zm1.93 2.05v.39h-1.3v-.4h1.3zm-1.14-2.05v2.44h-.5v-2.44h.5zm.97 1v.38h-1.13v-.39h1.13zm.16-1v.4h-1.3v-.4h1.3zm.3 0h.9c.2 0 .35.03.49.09.13.05.24.13.3.24a.83.83 0 0 1 .05.74c-.04.1-.1.17-.19.24a.97.97 0 0 1-.28.14l-.15.09h-.8v-.4h.6c.08 0 .15-.01.21-.04s.1-.08.13-.13a.4.4 0 0 0 .05-.2c0-.08-.02-.14-.05-.2s-.07-.1-.13-.13-.13-.05-.22-.05h-.41v2.05h-.5v-2.44zm1.36 2.44-.56-1.09h.54l.56 1.07v.02h-.54zm2.64-.87h-.62v-.4h.62a.5.5 0 0 0 .23-.04c.06-.03.1-.08.13-.13s.05-.12.05-.2c0-.07-.02-.14-.05-.2s-.07-.11-.13-.15-.14-.06-.23-.06h-.45v2.05h-.5v-2.44h.95c.19 0 .35.04.49.1a.74.74 0 0 1 .42.7c0 .16-.03.3-.1.4s-.18.21-.32.27c-.14.07-.3.1-.5.1zm2.9.48v.39h-1.3v-.4h1.3zm-1.14-2.05v2.44h-.5v-2.44h.5zm.96 1v.38h-1.12v-.39h1.12zm.17-1v.4h-1.3v-.4h1.3zm1.42 0v2.44h-.5v-2.44h.5zm.75 0v.4h-1.99v-.4h2zm1.92 2.05v.39h-1.3v-.4h1.3zm-1.13-2.05v2.44h-.5v-2.44h.5zm.96 1v.38h-1.12v-.39h1.12zm.17-1v.4h-1.3v-.4h1.3zm.3 0h.9c.19 0 .35.03.48.09.14.05.24.13.31.24s.11.25.11.4c0 .14-.02.25-.06.34-.05.1-.1.17-.19.24a.97.97 0 0 1-.28.14l-.16.09h-.79v-.4h.59c.08 0 .16-.01.22-.04s.1-.08.13-.13a.4.4 0 0 0 .04-.2c0-.08-.01-.14-.04-.2s-.07-.1-.13-.13a.49.49 0 0 0-.23-.05h-.4v2.05h-.5v-2.44zm1.36 2.44-.56-1.09h.53l.57 1.07v.02h-.54zm2.1-.64c0-.04 0-.08-.02-.12a.22.22 0 0 0-.07-.1l-.15-.08a2.35 2.35 0 0 0-.24-.1 3.08 3.08 0 0 1-.31-.11c-.1-.05-.19-.1-.26-.16a.58.58 0 0 1-.24-.48c0-.1.02-.2.06-.28a.82.82 0 0 1 .47-.35 1.3 1.3 0 0 1 .84.05.7.7 0 0 1 .3.26c.08.11.12.24.12.39H45a.38.38 0 0 0-.04-.19.3.3 0 0 0-.14-.13.48.48 0 0 0-.22-.05.52.52 0 0 0-.22.04.3.3 0 0 0-.13.1.26.26 0 0 0-.05.16c0 .04.01.08.03.1l.1.1.15.08.21.08c.13.04.25.08.35.14a.73.73 0 0 1 .4.38c.04.08.06.17.06.27s-.02.2-.06.28-.1.16-.18.22c-.08.05-.17.1-.28.13a1.37 1.37 0 0 1-1.04-.15.68.68 0 0 1-.31-.61h.5c0 .08.01.14.03.2s.06.1.1.12c.05.04.1.06.16.07a.6.6 0 0 0 .41-.01c.06-.03.1-.06.13-.1.02-.05.04-.1.04-.15z" />
    </symbol>
    <symbol id="logo_ya_co" viewBox="0 0 59 32">
      <path
        d="m21.71 4 4 3.81h-7.43v18.51h19.43v-7.08l4 3.82V4h-20zm15.83 14.8L26.18 7.98h11.36V18.8zM34 23.6H21.36V11.16h.9v11.61H34v.84zm-10.13 6.14-.47-.97h-.39l.69 1.28v.75h.35v-.75l.68-1.28h-.38l-.48.97zm1.74-.97h.09l.76 2.03h-.36l-.17-.47h-.79l-.16.47h-.37l.77-2.03h.23zm-.37 1.28h.6l-.3-.86-.3.86zm2.45-.34-.04-.06c-.05-.06-.1-.13-.12-.2s-.04-.13-.04-.2c0-.1.02-.2.06-.27s.1-.13.19-.18a.6.6 0 0 1 .28-.06c.1 0 .19.02.26.06a.44.44 0 0 1 .1.71.96.96 0 0 1-.13.13l-.15.1.4.47a.83.83 0 0 0 .09-.38h.3c0 .1-.02.2-.03.28s-.05.17-.1.25a.72.72 0 0 1-.05.09l.3.35h-.4l-.11-.14a.8.8 0 0 1-.21.12.94.94 0 0 1-.67-.03.55.55 0 0 1-.22-.2.56.56 0 0 1-.08-.3c0-.08.01-.15.05-.21s.08-.13.14-.18l.19-.15zm.17.2-.04.04c-.05.04-.09.07-.11.11l-.05.1v.08c0 .06 0 .12.03.17s.06.08.11.11.11.04.19.04a.51.51 0 0 0 .32-.11l-.45-.54zm.08-.37.13-.08c.06-.04.1-.08.12-.11s.04-.09.04-.15a.21.21 0 0 0-.21-.2.2.2 0 0 0-.2.13.28.28 0 0 0-.02.12c0 .04 0 .08.03.13l.09.14.02.03zm3.55.6h-.34c-.01.09-.04.16-.07.23s-.08.1-.14.13a.52.52 0 0 1-.24.05c-.08 0-.15-.02-.21-.05s-.1-.08-.15-.14l-.08-.21a1.2 1.2 0 0 1-.03-.28v-.17c0-.1.01-.2.03-.29s.05-.15.1-.21c.03-.06.08-.1.14-.13s.13-.05.21-.05c.1 0 .18.02.24.05s.1.08.14.15c.03.06.05.13.06.22h.35c-.02-.14-.06-.26-.12-.36s-.15-.19-.26-.25a.86.86 0 0 0-.4-.09c-.13 0-.25.03-.35.07s-.19.1-.26.2c-.08.08-.13.18-.17.3s-.06.25-.06.4v.16a1.06 1.06 0 0 0 .22.7.74.74 0 0 0 .6.26c.17 0 .3-.03.42-.09s.2-.14.26-.24c.07-.1.1-.23.12-.36zm1.94-.3v-.11c0-.15-.02-.3-.06-.41s-.1-.23-.17-.31c-.07-.1-.16-.16-.27-.2s-.21-.07-.34-.07a.77.77 0 0 0-.34.07.83.83 0 0 0-.44.5c-.04.13-.06.27-.06.42v.11c0 .15.02.3.06.41s.1.23.18.31a.77.77 0 0 0 .6.27c.13 0 .24-.02.35-.07s.19-.1.26-.2c.08-.08.13-.18.17-.3s.06-.27.06-.42zm-.35-.11v.11c0 .11 0 .21-.03.3s-.05.16-.1.22c-.04.06-.09.1-.15.14s-.13.04-.2.04c-.08 0-.15-.01-.21-.04s-.12-.08-.16-.14c-.04-.06-.07-.13-.1-.22s-.03-.19-.03-.3v-.11c0-.12.01-.22.03-.3s.06-.16.1-.22a.42.42 0 0 1 .36-.18.4.4 0 0 1 .36.18.5.5 0 0 1 .1.22c.02.08.03.18.03.3z" />
    </symbol>
    <symbol id="close-cross" viewBox="0 0 8 8">
      <path d="M8 .806 7.194 0 4 3.194.806 0 0 .806 3.194 4 0 7.194.806 8 4 4.806 7.194 8 8 7.194 4.806 4 8 .806Z" />
    </symbol>
    <symbol id="check" viewBox="0 0 40 32">
      <path
        d="M33.84 1.96c0.638-0.547 1.475-0.88 2.388-0.88 0.018 0 0.036 0 0.054 0l-0.003-0c0.92 0 1.76 0.32 2.4 0.92 0.68 0.56 1.040 1.36 1.080 2.2 0 0.84-0.32 1.68-0.92 2.28l-18.64 21.48c-0.67 0.626-1.572 1.010-2.564 1.010-0.95 0-1.818-0.352-2.48-0.934l0.004 0.004-12.32-11.32c-0.333-0.296-0.603-0.655-0.792-1.060l-0.008-0.020c-0.199-0.394-0.316-0.858-0.316-1.35 0-0.891 0.383-1.692 0.994-2.248l0.002-0.002c0.658-0.578 1.526-0.93 2.476-0.93 0.992 0 1.895 0.384 2.566 1.012l-0.002-0.002 9.84 9 16.16-19.12h0.080z">
      </path>
    </symbol>
    <symbol id="email" viewBox="0 0 24 32">
      <path
        d="M20 8h-16c-1.107 0-2 0.893-2 2v12c0 1.093 0.893 2 2 2h16c1.093 0 2-0.907 2-2v-12c0-1.107-0.907-2-2-2zM19.6 12.253l-7.067 4.413c-0.152 0.095-0.336 0.152-0.533 0.152s-0.382-0.056-0.538-0.154l0.004 0.002-7.067-4.4c-0.273-0.146-0.455-0.429-0.455-0.755 0-0.471 0.382-0.853 0.853-0.853 0.192 0 0.368 0.063 0.511 0.17l-0.002-0.002 6.693 4.173 6.707-4.187c0.145-0.116 0.33-0.187 0.533-0.187 0.471 0 0.853 0.382 0.853 0.853 0 0.34-0.199 0.634-0.488 0.771l-0.005 0.002z">
      </path>
    </symbol>
    <symbol id="person" viewBox="0 0 32 32">
      <path
        d="M16 16c2.946 0 5.333-2.388 5.333-5.333s-2.388-5.333-5.333-5.333v0c-2.946 0-5.333 2.388-5.333 5.333s2.388 5.333 5.333 5.333v0zM16 18.667c-3.556 0-10.667 1.778-10.667 5.333v1.333c0 0.729 0.604 1.333 1.333 1.333h18.667c0.729 0 1.333-0.604 1.333-1.333v-1.333c0-3.556-7.111-5.333-10.667-5.333z">
      </path>
    </symbol>
    <symbol id="phone" viewBox="0 0 24 32">
      <path
        d="M19.64 18.493l-2.453-0.28c-0.587-0.080-1.173 0.133-1.587 0.533l-1.773 1.787c-2.752-1.42-4.94-3.608-6.322-6.279l-0.038-0.081 1.787-1.787c0.413-0.413 0.613-0.987 0.547-1.587l-0.267-2.427c-0.117-0.966-0.932-1.707-1.92-1.707-0.005 0-0.009 0-0.014 0h-1.666c-1.093 0-2 0.907-1.933 2 0.537 8.244 7.090 14.797 15.285 15.331l0.049 0.003c1.093 0.067 2-0.84 2-1.933v-1.667c0-0.973-0.72-1.8-1.693-1.907z">
      </path>
    </symbol>
    <symbol id="icon-send" viewBox="0 0 32 32">
      <path d="M32 2.667l-32 15 10.227 3.16 15.773-12.32-12 13.48v7.347l5.733-5.573 7.267 2.24 5-23.333z"></path>
    </symbol>
    <symbol id="menu-hamburger" viewBox="0 0 48 32">
      <path
        d="M2.221 0c-1.227 0-2.221 0.994-2.221 2.221s0.994 2.221 2.221 2.221v0h43.743c1.227 0 2.221-0.994 2.221-2.221s-0.994-2.221-2.221-2.221v0zM2.221 13.771c-1.227 0-2.221 0.994-2.221 2.221s0.994 2.221 2.221 2.221v0h43.743c1.227 0 2.221-0.994 2.221-2.221s-0.994-2.221-2.221-2.221v0zM2.221 27.558c-1.227 0-2.221 0.994-2.221 2.221s0.994 2.221 2.221 2.221v0h43.743c1.227 0 2.221-0.994 2.221-2.221s-0.994-2.221-2.221-2.221v0z">
      </path>
    </symbol>
  </defs>
</svg>
